<?xml version="1.0" encoding="utf-8"?>
<!DOCTYPE svg PUBLIC "-//W3C//DTD SVG 1.1//EN" "http://www.w3.org/Graphics/SVG/1.1/DTD/svg11.dtd">
<svg version="1.1" xmlns="http://www.w3.org/2000/svg" xmlns:xlink="http://www.w3.org/1999/xlink" width="1152" height="1024" viewBox="0 0 1152 1024">
<g id="icomoon-calendar">
</g>
<path fill="#ebcb8b" d="M16 1023.456c8.576 2.144 17.344-2.816 19.584-11.328 32.96-122.976 166.912-154.848 246.976-173.92 20.064-4.768 35.904-8.544 46.208-12.992 91.2-39.584 120.928-103.264 129.824-149.728 1.088-5.6-0.928-11.36-5.28-15.136-47.488-40.992-87.552-102.528-112.832-173.312-0.704-2.016-1.824-3.872-3.296-5.472-33.44-36.352-52.64-74.784-52.64-105.408 0-17.888 6.752-29.888 21.952-38.944 4.64-2.784 7.552-7.68 7.776-13.056 7.072-163.008 123.168-291.328 265.568-292.16 0.16 0 3.264 0.224 3.424 0.224 143.104 1.984 258.464 133.056 262.592 298.368 0.128 4.576 2.176 8.864 5.696 11.808 10.016 8.48 14.688 19.232 14.688 33.824 0 25.632-13.664 57.152-38.432 88.704-1.184 1.504-2.080 3.232-2.688 5.056-25.6 81.152-71.552 152.8-126.016 196.64-4.608 3.712-6.784 9.664-5.696 15.456 8.896 46.432 38.624 110.080 129.824 149.728 10.784 4.672 27.52 8.32 48.736 12.896 79.264 17.152 211.904 45.92 244.448 167.424 1.92 7.136 8.384 11.84 15.424 11.84 1.376 0 2.752-0.192 4.16-0.544 8.544-2.304 13.6-11.072 11.328-19.616-37.6-140.384-187.872-172.928-268.576-190.4-18.72-4.064-34.88-7.552-42.752-11.008-59.52-25.856-96.192-65.248-109.152-117.28 55.264-47.456 101.504-120.672 127.936-202.784 28.064-36.48 43.488-74.048 43.488-106.144 0-21.408-6.912-39.264-20.608-53.216-7.616-179.328-135.584-320.544-294.4-322.816l-4.768-0.064c-155.936 0.832-284.448 138.336-295.68 314.56-20.032 14.72-30.208 35.36-30.208 61.568 0 37.856 21.408 83.136 58.88 124.672 25.888 71.136 66.016 133.632 113.792 177.376-12.896 52.224-49.6 91.744-109.248 117.632-7.712 3.36-23.072 7.040-40.864 11.264-81.312 19.328-232.608 55.328-270.496 196.704-2.272 8.544 2.784 17.28 11.328 19.584z"></path>
</svg>
