<?xml version="1.0" encoding="utf-8"?>
<!DOCTYPE svg PUBLIC "-//W3C//DTD SVG 1.1//EN" "http://www.w3.org/Graphics/SVG/1.1/DTD/svg11.dtd">
<svg version="1.1" xmlns="http://www.w3.org/2000/svg" xmlns:xlink="http://www.w3.org/1999/xlink" width="1024" height="1024" viewBox="0 0 1024 1024">
<g id="icomoon-link">
</g>
<path fill="#ebcb8b" d="M607.552 527.072c5.248 0.576 10.464 0.832 15.68 0.832 38.912 0 76.224-15.392 104.256-43.424l236.96-236.96c27.712-27.712 43.168-64.448 43.392-103.392 0.288-39.040-14.688-75.648-42.112-103.104-27.2-27.2-63.36-42.144-102.016-42.144-0.352 0-0.672 0-1.056 0-38.944 0.256-75.648 15.68-103.36 43.392l-236.96 236.96c-35.040 35.040-50.208 84.768-40.608 133.024 1.856 9.28 11.072 15.328 20.128 13.408 9.28-1.856 15.296-10.848 13.44-20.096-7.392-37.024 4.288-75.232 31.232-102.144l236.96-236.96c21.312-21.344 49.536-33.184 79.424-33.376 31.2 0 57.76 11.2 78.656 32.096s32.32 48.864 32.128 78.656c-0.224 29.92-12.064 58.112-33.408 79.424l-236.96 236.96c-24.448 24.416-58.016 36.256-92.128 32.768-9.12-1.056-17.824 5.792-18.816 15.2-1.024 9.472 5.792 17.888 15.168 18.88zM484.48 744.736c36.736-36.736 51.456-88.608 39.328-138.688-2.208-9.184-11.232-14.912-20.672-12.608-9.184 2.208-14.816 11.456-12.608 20.64 9.312 38.432-2.016 78.208-30.272 106.496l-236.96 236.96c-21.312 21.344-49.536 33.184-79.424 33.376-30.688 0.16-57.76-11.168-78.656-32.096-20.896-20.896-32.32-48.832-32.096-78.656 0.192-29.92 12.064-58.112 33.376-79.456l236.96-236.96c24.672-24.672 58.304-36.608 92.992-32.672 9.216 0.704 17.888-5.664 18.944-15.072 1.056-9.376-5.664-17.856-15.072-18.944-44.928-5.056-88.96 10.368-121.056 42.464l-236.96 236.96c-27.712 27.712-43.136 64.448-43.392 103.392-0.288 39.040 14.688 75.648 42.112 103.104 27.2 27.2 63.36 42.144 102.016 42.144 0.352 0 0.672 0 1.056 0 38.944-0.256 75.648-15.68 103.36-43.392l237.024-236.992zM727.488 283.904c-6.688-6.688-17.504-6.688-24.192 0l-432 432c-6.688 6.656-6.688 17.504 0 24.192 3.328 3.328 7.712 5.024 12.096 5.024s8.736-1.664 12.096-5.024l432-432c6.688-6.688 6.688-17.504 0-24.192z"></path>
</svg>
