<?xml version="1.0" encoding="utf-8"?>
<!DOCTYPE svg PUBLIC "-//W3C//DTD SVG 1.1//EN" "http://www.w3.org/Graphics/SVG/1.1/DTD/svg11.dtd">
<svg version="1.1" xmlns="http://www.w3.org/2000/svg" xmlns:xlink="http://www.w3.org/1999/xlink" width="1216" height="1024" viewBox="0 0 1216 1024">
<g id="icomoon-mail">
</g>
<path fill="#ebcb8b" d="M641.92 13.216c-18.56-17.056-49.248-17.056-67.808 0l-566.016 341.472c-4.8 2.912-7.744 8.096-7.744 13.696v605.504c0 27.616 22.592 50.112 50.368 50.112h1114.56c27.776 0 50.368-22.496 50.368-50.112v-605.504c0-5.6-2.944-10.784-7.744-13.696l-565.984-341.472zM592.128 39.68c1.12-0.672 2.112-1.472 3.040-2.368 3.456-3.424 8-5.312 12.832-5.312s9.376 1.888 12.8 5.312c0.928 0.896 1.952 1.696 3.040 2.368l551.264 332.608-399.296 237.952c-7.584 4.544-10.080 14.336-5.568 21.952 3.008 5.024 8.32 7.808 13.76 7.808 2.784 0 5.6-0.704 8.16-2.24l391.84-233.28v568.224l-541.92-360.512c-17.216-13.728-51.008-13.728-67.072-0.8l-543.008 361.152v-568.064l391.808 233.28c2.56 1.536 5.408 2.24 8.192 2.24 5.44 0 10.752-2.784 13.76-7.808 4.512-7.584 2.016-17.408-5.568-21.952l-399.328-237.952 551.264-332.608zM1154.88 992h-1094.016l532.992-354.752c5.536-4.416 22.784-4.384 29.408 0.8l531.616 353.952zM208 416h800c8.832 0 16-7.168 16-16s-7.168-16-16-16h-800c-8.832 0-16 7.168-16 16s7.168 16 16 16z"></path>
</svg>
