<?xml version="1.0" encoding="utf-8"?>
<!DOCTYPE svg PUBLIC "-//W3C//DTD SVG 1.1//EN" "http://www.w3.org/Graphics/SVG/1.1/DTD/svg11.dtd">
<svg version="1.1" xmlns="http://www.w3.org/2000/svg" xmlns:xlink="http://www.w3.org/1999/xlink" width="1024" height="1024" viewBox="0 0 1024 1024">
<g id="icomoon-global">
</g>
<path fill="#ebcb8b" d="M1.088 533.376c11.328 272.352 235.808 490.624 510.912 490.624s499.584-218.272 510.912-490.624c0.608-1.696 1.088-3.456 1.088-5.376 0-1.152-0.416-2.144-0.64-3.2 0.096-4.288 0.64-8.48 0.64-12.8 0-282.304-229.696-512-512-512s-512 229.696-512 512c0 4.32 0.544 8.512 0.64 12.8-0.224 1.056-0.64 2.048-0.64 3.2 0 1.92 0.48 3.68 1.088 5.376zM797.472 727.744c-42.208-17.664-87.52-31.328-134.88-40.672 5.056-46.496 8.032-94.784 8.96-143.040h159.36c-2.912 65.728-14.592 127.776-33.44 183.712zM862.88 544h127.488c-5.952 89.792-36.416 172.896-85.216 242.528-24.288-17.056-50.464-32.608-78.624-46.080 20.64-59.808 33.344-126.176 36.352-196.448zM396.448 713.152c37.696-5.888 76.384-9.152 115.552-9.152s77.856 3.264 115.52 9.152c-22.208 170.72-70.72 278.848-115.52 278.848s-93.312-108.128-115.552-278.848zM445.056 981.248c-88.032-28.224-162.496-111.072-207.424-223.488 39.872-16.8 82.752-29.92 127.68-38.944 14.688 111.872 41.536 209.344 79.744 262.432zM392.768 342.688c38.944 6.016 78.88 9.312 119.232 9.312s80.288-3.296 119.232-9.312c5.504 51.84 8.768 108.416 8.768 169.312h-256c0-60.896 3.264-117.472 8.768-169.312zM639.52 544c-0.896 48.8-3.776 94.752-8.32 137.312-38.912-6.016-78.816-9.312-119.2-9.312s-80.288 3.296-119.232 9.312c-5.536-52.032-7.584-97.824-8.32-137.312h255.072zM658.72 718.816c44.928 9.024 87.776 22.144 127.68 38.944-44.928 112.416-119.392 195.264-207.424 223.488 38.176-53.088 65.024-150.56 79.744-262.432zM672 512c0-58.752-3.264-118.272-9.408-175.040 47.36-9.344 92.672-23.040 134.88-40.672 21.888 64.928 34.528 138.080 34.528 215.712h-160zM658.72 305.184c-14.72-111.872-41.536-209.376-79.776-262.432 88.032 28.224 162.496 111.072 207.424 223.488-39.872 16.8-82.72 29.952-127.648 38.944zM627.552 310.848c-37.696 5.888-76.384 9.152-115.552 9.152s-77.856-3.264-115.552-9.152c22.24-170.72 70.752-278.848 115.552-278.848s93.312 108.128 115.552 278.848zM365.28 305.184c-44.928-9.024-87.776-22.144-127.68-38.944 44.928-112.416 119.392-195.264 207.424-223.488-38.176 53.088-65.024 150.56-79.744 262.432zM361.408 336.96c-6.144 56.768-9.408 116.288-9.408 175.040h-160c0-77.632 12.64-150.784 34.528-215.744 42.208 17.664 87.52 31.328 134.88 40.704zM352.448 544c0.928 48.256 3.904 96.544 8.96 143.072-47.36 9.344-92.672 23.040-134.88 40.672-18.848-55.936-30.528-117.984-33.44-183.744h159.36zM197.44 740.448c-28.16 13.504-54.304 29.024-78.592 46.080-48.8-69.632-79.264-152.704-85.216-242.528h127.488c3.008 70.272 15.712 136.64 36.32 196.448zM138.016 812.16c21.92-15.328 45.344-29.504 70.624-41.76 32.128 79.52 78.368 145.536 133.952 190.176-80.832-30.656-151.328-82.176-204.576-148.416zM681.408 960.544c55.616-44.608 101.824-110.656 133.952-190.176 25.28 12.288 48.704 26.432 70.624 41.76-53.248 66.272-123.744 117.792-204.576 148.416zM864 512c0-82.144-13.696-159.584-37.44-228.448 28.16-13.504 54.336-29.024 78.624-46.080 54.528 77.888 86.816 172.448 86.816 274.528h-128zM886.016 211.84c-21.92 15.328-45.344 29.472-70.624 41.76-32.128-79.52-78.368-145.568-133.952-190.176 80.8 30.656 151.296 82.176 204.576 148.416zM342.592 63.456c-55.616 44.608-101.824 110.656-133.952 190.176-25.312-12.288-48.704-26.464-70.624-41.792 53.248-66.24 123.744-117.76 204.576-148.384zM118.848 237.472c24.256 17.056 50.432 32.576 78.592 46.080-23.744 68.864-37.44 146.304-37.44 228.448h-128c0-102.080 32.288-196.64 86.848-274.528z"></path>
</svg>
